:SAMPLES-PER-SECOND 30
:FULLY-SPECIFIED
:DEGREES
636
root  -54.5862 37.9922 1.76052 113.47 -88.2405 -122.65
RightUpLeg  -23.2981 -3.26038 -2.04376
RightLeg  61.3113 -0.673979 -1.74401
RightFoot  -4.91326 -0.345191 5.57777
RightToes  5.82063e-011 0 -3.6325e-017
Spine  44.2634 -2.42275 6.48701
Spine1  13.1576 2.00562 -5.1563
HEad  -17.6669 -3.97962 -3.96731
LeftShoulder1  1.17601 -0.351436 -24.2577
LeftArm  -6.70183 -23.3173 -44.5629
LeftForeArm  20.4145 -59.7079 -17.6479
LeftHand  -0.0393812 2.43673 1.02218
RightShoulder  0.32109 -2.31776 21.3296
RightArm  -11.0369 22.2011 42.3769
RightForeArm  11.764 61.37 20.0377
RightHand  -0.382691 5.50167 -4.38546
LeftUpLeg  -21.7412 16.3965 2.32188
LeftLeg  28.9624 -7.83527 -4.32007
LeftFoot  4.17653 -0.975583 6.96401
LeftToes  2.58842e-009 -1.78069e-010 3.24654e-012
637
root  -55.0466 38.2566 1.91603 97.135 -87.2155 -104.793
RightUpLeg  -25.0958 -4.11908 0.0817933
RightLeg  49.7945 -1.90754 -2.81989
RightFoot  -5.25695 -0.395846 6.77365
RightToes  5.82063e-011 0 -3.6325e-017
Spine  48.2351 -3.39328 7.40917
Spine1  11.8628 1.98196 -5.31161
HEad  -20.6712 -4.66303 -4.70794
LeftShoulder1  1.31862 -0.903288 -23.6526
LeftArm  -7.17484 -28.0147 -45.3988
LeftForeArm  17.1824 -56.0287 -15.3569
LeftHand  -0.0688452 1.6984 1.92233
RightShoulder  0.49745 -1.54771 19.1754
RightArm  -12.0011 27.2772 43.59
RightForeArm  8.36571 56.8316 16.7119
RightHand  -0.34671 5.3453 -4.04587
LeftUpLeg  -22.294 16.814 2.97646
LeftLeg  28.349 -8.42273 -4.54711
LeftFoot  3.98045 -1.02109 7.39502
LeftToes  2.58842e-009 -1.78069e-010 3.24654e-012
638
root  -55.4806 38.3705 1.98728 82.3888 -86.8145 -87.785
RightUpLeg  -26.5309 -5.23036 1.12111
RightLeg  37.1405 -1.27807 -1.38725
RightFoot  -4.38762 -0.416393 6.34561
RightToes  5.82063e-011 0 -3.6325e-017
Spine  51.1235 -4.08091 7.98362
Spine1  10.9739 1.75643 -4.65072
HEad  -23.5235 -5.91388 -5.65223
LeftShoulder1  1.38683 -1.27359 -22.7111
LeftArm  -7.817 -32.8338 -47.3779
LeftForeArm  16.3465 -52.2058 -13.2053
LeftHand  -0.101226 1.10499 2.61183
RightShoulder  0.626035 -0.880062 17.4184
RightArm  -13.0641 32.4151 43.46
RightForeArm  5.33215 52.5873 14.3441
RightHand  -0.511137 6.59658 -5.27956
LeftUpLeg  -24.1925 16.3178 2.64315
LeftLeg  28.3409 -8.59409 -4.64508
LeftFoot  3.41981 -0.927895 6.99673
LeftToes  2.58842e-009 -1.78069e-010 3.24654e-012
639
root  -55.9179 38.3292 1.8566 55.3315 -86.972 -58.4346
RightUpLeg  -27.2234 -4.15203 0.567006
RightLeg  25.3054 0.559853 0.141511
RightFoot  -4.48419 -0.535075 8.32681
RightToes  5.82063e-011 0 -3.6325e-017
Spine  53.7426 -3.59237 6.87612
Spine1  10.285 1.36064 -2.46081
HEad  -26.2962 -7.60636 -6.01602
LeftShoulder1  1.46444 -1.88237 -20.8153
LeftArm  -8.96172 -37.3149 -49.5186
LeftForeArm  15.4547 -48.5632 -11.5935
LeftHand  -0.154285 0.672366 3.74473
RightShoulder  0.666502 -0.448029 15.0999
RightArm  -14.4711 36.9773 43.4639
RightForeArm  2.63951 48.5851 12.5565
RightHand  -0.631125 7.74326 -5.94814
LeftUpLeg  -26.6158 15.4091 1.41326
LeftLeg  29.1168 -8.68766 -4.85979
LeftFoot  2.85631 -0.971437 7.64822
LeftToes  2.58842e-009 -1.78069e-010 3.24654e-012
640
root  -56.3577 38.1152 1.64366 24.2702 -86.7489 -25.8094
RightUpLeg  -27.4106 -1.85643 -1.16587
RightLeg  17.6637 1.29565 0.240996
RightFoot  -2.19497 -0.781225 10.4736
RightToes  5.82063e-011 0 -3.6325e-017
Spine  56.8117 -3.2134 5.89314
Spine1  9.50706 1.01249 -1.19331
HEad  -28.6994 -9.27274 -5.0319
LeftShoulder1  1.63753 -3.13491 -18.0376
LeftArm  -10.5636 -43.2516 -51.0904
LeftForeArm  14.4393 -43.1349 -9.51539
LeftHand  -0.186325 0.262242 4.22903
RightShoulder  0.665049 -0.268717 13.7065
RightArm  -15.9521 41.4186 42.1227
RightForeArm  -0.0603235 44.2103 10.8991
RightHand  -0.71067 9.17839 -6.00123
LeftUpLeg  -28.7393 14.1179 -0.0238813
LeftLeg  30.9661 -8.54297 -5.14513
LeftFoot  1.56693 -0.874104 7.63049
LeftToes  2.58842e-009 -1.78069e-010 3.24654e-012
641
root  -56.6885 37.924 1.53853 13.3824 -84.1627 -14.1294
RightUpLeg  -28.6317 -3.98142 -0.511764
RightLeg  17.404 4.20816 1.27859
RightFoot  7.10464 -0.759217 4.75527
RightToes  5.82063e-011 0 -3.6325e-017
Spine  60.4859 -4.98967 7.90556
Spine1  8.66893 -0.155887 -0.448004
HEad  -30.9556 -9.65862 -3.42477
LeftShoulder1  1.89558 -4.84547 -16
LeftArm  -13.098 -49.2284 -49.0041
LeftForeArm  13.1662 -38.0598 -7.96371
LeftHand  -0.145951 0.419212 3.40037
RightShoulder  0.673123 -0.0954921 12.8091
RightArm  -17.3653 45.8878 39.8294
RightForeArm  -3.53449 39.7064 9.52359
RightHand  -0.930057 10.8175 -7.05155
LeftUpLeg  -30.3686 9.92089 0.238732
LeftLeg  32.8948 -7.04327 -4.52822
LeftFoot  0.35438 -0.755038 7.33389
LeftToes  2.58842e-009 -1.78069e-010 3.24654e-012
642
root  -57.0119 37.6583 1.43963 16.5998 -81.9695 -18.0588
RightUpLeg  -29.7531 -6.22517 0.778943
RightLeg  21.9917 4.33623 1.73231
RightFoot  7.15567 -0.166605 1.30444
RightToes  5.82063e-011 0 -3.6325e-017
Spine  65.6098 -8.11345 10.5239
Spine1  6.80443 -0.729249 -2.46814
HEad  -32.8073 -8.96971 -0.592446
LeftShoulder1  1.83894 -6.2458 -11.7071
LeftArm  -15.1639 -53.9902 -46.7807
LeftForeArm  10.6456 -33.3411 -6.78726
LeftHand  -0.153631 0.764534 3.79261
RightShoulder  0.781838 0.54077 12.2821
RightArm  -19.7905 50.373 36.4875
RightForeArm  -6.4807 34.2989 8.03439
RightHand  -0.849018 11.1684 -6.32087
LeftUpLeg  -31.095 6.06262 1.86406
LeftLeg  36.2267 -5.20092 -3.71402
LeftFoot  -1.62709 -0.571922 6.84013
LeftToes  2.58842e-009 -1.78069e-010 3.24654e-012
643
root  -57.392 37.4054 1.51506 21.4056 -80.2272 -24.6064
RightUpLeg  -29.2001 -11.2846 2.86702
RightLeg  25.5735 7.20961 3.50751
RightFoot  6.12422 0.0931925 -0.345021
RightToes  5.82063e-011 0 -3.6325e-017
Spine  72.0455 -11.5957 12.6534
Spine1  4.68704 -1.01345 -4.36913
HEad  -34.0703 -7.89449 0.796858
LeftShoulder1  1.83294 -7.42581 -9.36683
LeftArm  -19.5794 -57.7991 -43.4741
LeftForeArm  9.39191 -30.1742 -6.05859
LeftHand  -0.169217 0.560552 4.04504
RightShoulder  0.804306 1.22739 9.88375
RightArm  -22.6622 54.5966 33.284
RightForeArm  -10.0667 28.7014 6.76148
RightHand  -1.18824 13.8337 -7.59122
LeftUpLeg  -30.683 2.89092 3.80073
LeftLeg  39.7457 -3.55213 -2.79028
LeftFoot  -3.87987 -0.40071 6.49949
LeftToes  2.58842e-009 -1.78069e-010 3.24654e-012
